# xmcd
#
# Track frame offsets:
#	150
#	23509
#	35475
#	45611
#	58860
#	71148
#	85040
#	102373
#	114487
#	128857
#	140240
#	156462
#	170389
#	185866
#	196777
#	208427
#	226372
#	240744
#	255900
#	269226
#	286922
#	298533
#	311089
#	323289
#	338250
#	352067
#
# Disc length: 4835 seconds
#
# Revision: 0
# Processed by: cddbd v1.5.2PL0 Copyright (c) Steve Scherf et al.
# Submitted via: EZCDAudioConverter 7.1.5.1
#
DISCID=8e12e11a
DTITLE=Shirley Bassey - Greatest Love Collection
DYEAR=1997
DGENRE=Easy Listening
TTITLE0=Don't Cry For Me Argentina
TTITLE1=Kinlling Me Softly With His Song
TTITLE2=Fa Fa Fa (Live For Today)
TTITLE3=You're The Sunshine Of My Life
TTITLE4=The Boy From Ipanema
TTITLE5=Where Do I Begin (The Life Story)
TTITLE6=Can't Take My Eyes Off You
TTITLE7=The Way We Were
TTITLE8=This Is My Life
TTITLE9=Never Never Never
TTITLE10=Yesterday
TTITLE11=Tife After Time
TTITLE12=Something
TTITLE13=Softly As I Leave You
TTITLE14=For All We Know
TTITLE15=If You Don't Understand
TTITLE16=You Take My Heart Away
TTITLE17=New York New York
TTITLE18=Starlight Express
TTITLE19=New York State Of Mind
TTITLE20=I Who Have Nothing
TTITLE21=If And When
TTITLE22=Goldfinger
TTITLE23=Make The World A Little Younger
TTITLE24=Yesterday I Heard The Rain
TTITLE25=Does Anybody Miss Me
EXTD=
EXTT0=
EXTT1=
EXTT2=
EXTT3=
EXTT4=
EXTT5=
EXTT6=
EXTT7=
EXTT8=
EXTT9=
EXTT10=
EXTT11=
EXTT12=
EXTT13=
EXTT14=
EXTT15=
EXTT16=
EXTT17=
EXTT18=
EXTT19=
EXTT20=
EXTT21=
EXTT22=
EXTT23=
EXTT24=
EXTT25=
PLAYORDER=
